<svg width="322" height="550" viewBox="0 0 322 550" fill="none" xmlns="http://www.w3.org/2000/svg">
<path d="M-780.478 419.096C-720.048 377.4 -639.464 357.4 -534.124 357.957C-502.705 358.122 -410.827 363.693 -404.69 364.072C-394.176 370.55 -387.07 382.271 -380.217 393.698L-379.368 395.111C-358.287 430.192 -333.433 463.131 -305.492 493.006C-285.731 514.14 -261.299 537.107 -229.893 547.204C-223.166 549.372 -213.464 550.305 -206.402 546.426C-202.677 544.382 -200.166 541.192 -199.119 537.213C-197.965 532.769 -199.071 528.447 -200.302 524.804C-211.58 491.516 -242.064 471.863 -271.545 452.854C-277.627 448.937 -283.908 444.882 -289.816 440.831C-312.885 424.99 -333.689 406.101 -351.773 384.533C-356.935 378.38 -362.686 371.552 -369.251 366.064C-356.242 366.699 -294.645 367.549 -284.837 367.245C-284.624 378.568 -274.615 387.898 -270.018 392.168L-134.159 518.505C-122.549 529.305 -108.102 542.74 -90.1614 547.468C-72.32 552.173 -48.715 545.612 -41.7737 526.788C-37.2078 514.454 -40.384 500.117 -51.4871 482.967C-75.403 446.01 -111.605 418.087 -153.426 404.354C-164.524 400.709 -176.293 397.906 -187.677 395.195C-214.736 388.755 -240.45 382.606 -259.094 366.013C-222.98 363.425 -176.254 356.189 -136.349 332.303C-134.299 336.462 -130.291 338.805 -127.537 340.396C-116.001 347.044 -105.706 354.17 -95.7477 361.063C-87.9305 366.477 -79.883 372.033 -71.1534 377.436L-43.5364 414.62C-33.5835 428.012 -22.3049 443.189 -8.25966 453.238C5.32296 462.943 20.2898 467.235 34.4503 470.8C107.619 489.224 172.935 491.059 228.59 476.265C243.098 472.406 250.867 465.082 251.668 454.483C252.204 447.368 249.178 440.479 246.484 435.265C238.874 420.57 228.35 407.898 216.183 398.392C238.676 388.17 258.149 373.199 275.451 352.716C277.687 350.075 280.093 346.896 280.34 342.686C280.691 336.707 276.72 331.555 268.524 327.382C258.317 322.185 247.674 317.915 236.986 313.994C251.392 308.444 262.985 295.774 266.348 280.45C267.99 272.928 267.76 265.14 267.544 257.611C267.224 246.617 266.922 236.223 272.465 228.301C275.833 223.477 281.061 220.084 286.594 216.496C288.322 215.373 290.05 214.251 291.725 213.083C300.815 206.758 308.619 198.936 314.924 189.83C321.993 179.592 325.235 165.591 316.453 157.394C313.841 154.954 310.736 153.656 307.99 152.506C288.547 144.392 268.005 137.151 248.139 130.143C229.712 123.65 210.739 116.917 192.673 109.537C195.674 100.37 198.413 91.06 201.051 81.6604C203.827 71.7764 205.877 61.0461 203.354 51.8092C202.944 49.0123 201.929 47.0728 200.867 45.6086C199.978 44.0914 198.917 42.6381 197.639 41.2708C184.481 27.1842 161.013 35.3005 153.296 37.9694C138.214 43.1865 114.083 52.0285 81.6823 64.1975C79.5191 47.0344 75.1049 30.4837 68.3502 15.3333C65.9438 9.937 62.7401 4.06364 57.2306 1.40756C55.0766 0.369257 52.9115 0.023764 50.8763 0C48.2011 0.215704 46.8791 0.29979 41.4464 1.43863C37.7564 2.24295 20.7945 7.00855 18.0462 8.23697C15.1552 9.45807 12.3191 10.8675 9.57075 12.5346C-5.37782 21.6033 -15.5685 36.9146 -25.4263 51.7214C-28.4654 56.286 -31.5648 60.9181 -34.7996 65.3729C-36.2496 66.7001 -37.6868 68.0418 -39.1534 69.3488C-42.538 72.3687 -45.9812 75.3556 -49.4299 78.3408C-65.0532 91.8844 -81.2123 105.891 -92.5934 123.798C-95.4149 128.238 -97.8908 132.841 -100.069 137.557C-106.531 151.549 -110.367 166.551 -112.836 181.367C-113.543 181.758 -114.191 182.27 -114.622 183.021C-115.785 185.047 -116.846 187.109 -117.817 189.209C-125.509 205.866 -127.424 224.595 -129.137 241.34L-137.419 322.253C-181.76 350.318 -292.162 358.292 -297.148 358.367C-267.138 339.763 -245.68 313.462 -232.042 292.478C-209.424 257.677 -195.021 218.781 -182.215 181.923C-176.441 165.313 -171.35 147.739 -177.894 131.517C-178.825 129.212 -180.423 125.882 -183.523 123.602C-188.204 120.158 -194.672 120.07 -202.224 123.342C-203.63 123.951 -204.919 124.704 -206.256 125.401C-206.632 125.359 -207.003 125.278 -207.397 125.335C-208.986 125.56 -210.194 126.615 -210.831 127.969C-226.105 137.564 -236.959 152.974 -248.241 170.499C-256.17 182.811 -264.912 196.386 -271.669 211.01C-273.68 215.364 -275.518 219.813 -277.098 224.347C-282.565 239.982 -285.038 256.445 -287.431 272.372C-288.647 280.479 -289.904 288.866 -291.538 296.962C-297.388 325.932 -307.88 345.764 -323.63 357.592C-323.92 357.811 -324.145 358.081 -324.368 358.35C-345.148 358.036 -416.163 354.155 -419.707 353.93C-419.664 353.654 -419.558 353.4 -419.568 353.111C-419.941 340.736 -413.12 328.908 -406.526 317.478C-405.544 315.78 -404.571 314.091 -403.621 312.405C-384.775 278.883 -374.398 240.826 -366.018 204.696C-363.632 194.408 -361.797 185.114 -363.551 175.552C-365.032 167.472 -370.028 158.711 -378.092 154.417C-378.97 153.749 -379.381 153.717 -380.175 153.373C-381.034 153.004 -381.477 152.846 -382.899 152.525C-383.303 152.419 -383.667 152.245 -384.084 152.161C-388.495 151.265 -393.223 152.099 -396.736 153.296C-398.025 153.735 -399.888 154.662 -403.46 156.698C-408.464 160.018 -412.78 164.575 -415.945 169.244C-418.452 172.94 -420.597 176.773 -422.422 180.723C-434.227 206.293 -432.671 236.702 -429.881 265.978C-428.294 282.633 -432.944 344.682 -436.981 352.844C-468.965 350.828 -501.694 348.949 -534.073 348.779C-641.36 348.212 -723.666 368.744 -785.693 411.547C-786.394 412.028 -786.92 412.675 -787.253 413.395C-787.911 414.819 -787.82 416.545 -786.864 417.928C-785.424 420.012 -782.565 420.537 -780.478 419.096ZM-2.90927 445.767C-15.7842 436.561 -26.1413 422.623 -36.1545 409.143L-49.0716 391.751C-39.0912 400.672 -28.4818 408.924 -16.7954 415.837C3.90948 428.085 26.8544 435.579 49.0404 442.824L153.331 476.889C117.343 477.358 78.3671 472.384 36.7049 461.897C23.3929 458.545 9.36593 454.54 -2.90927 445.767ZM238.34 439.48C240.479 443.617 242.886 448.979 242.527 453.79C242.434 454.986 242.196 456.333 241.549 457.737C239.996 461.098 236.09 464.774 226.24 467.392C209.21 471.92 197.771 474.309 178.889 475.624C166.316 469.076 51.8949 434.101 51.8949 434.101C30.1769 427.008 7.72025 419.674 -12.1179 407.936C-39.3399 391.837 -61.1218 367.87 -82.1906 344.693L-86.9449 339.429C-89.0862 337.048 -90.7465 335.206 -92.2734 333.588L-95.883 328.727C-78.8718 331.864 -61.8021 331.261 -45.131 330.672C-39.0309 330.457 -32.9362 330.239 -26.8654 330.206C20.1509 329.969 69.184 341.666 114.937 364.048C118.619 365.847 122.288 367.722 125.961 369.596C131.681 372.512 137.505 375.471 143.422 378.193C143.457 378.21 143.49 378.222 143.525 378.237C149.147 380.82 154.853 383.189 160.646 385.066C164.804 386.414 168.998 387.51 173.054 388.567C178.984 390.119 184.585 391.583 190.133 393.769C209.441 401.389 227.465 418.48 238.34 439.48ZM-97.8048 157.318C-98.9166 163.003 -99.8546 168.66 -100.745 174.104C-103.733 192.395 -106.234 211.313 -108.613 229.887C-108.493 228.229 -108.374 226.524 -108.253 224.91C-106.699 204.153 -104.878 179.881 -97.8048 157.318ZM-100.721 240.526C-97.9858 219.046 -95.1534 196.832 -91.6809 175.583C-88.7607 157.692 -85.4272 137.409 -76.2606 122.564C-70.2153 112.8 -61.9246 105.596 -53.1474 97.968C-47.8263 93.345 -42.3259 88.5666 -37.3394 83.1466C-34.0059 79.5235 -30.9211 75.5933 -27.9588 71.5552C-9.30008 54.425 8.03839 35.7502 23.7239 15.878C24.8649 15.4393 26.0187 15.0243 27.1854 14.6368C13.0834 28.206 -0.501007 43.4881 -8.99655 61.8815C-9.11358 62.1337 -9.22513 62.3878 -9.34398 62.6437C-12.9774 70.6814 -15.5465 79.1323 -18.0315 87.3016C-18.9879 90.4531 -19.9461 93.6064 -20.9646 96.7304C-29.1602 121.917 -41.5305 146.081 -53.4949 169.439C-62.2921 186.637 -71.3911 204.411 -78.8846 222.645C-83.8126 234.642 -87.3252 247.014 -90.7154 258.975C-94.9632 273.928 -99.0391 288.261 -105.585 301.593C-106.383 298.399 -107.114 295.189 -107.664 291.939C-105.112 274.869 -102.881 257.479 -100.721 240.526ZM134.342 224.1C93.9008 259.103 44.7616 282.888 -7.7879 292.884C-14.2848 294.122 -21.0304 295.189 -27.5584 296.224C-31.2503 296.809 -34.9623 297.412 -38.678 298.035C-8.62357 279.095 18.9038 251.043 42.037 215.134C57.8853 190.534 68.9152 166.657 75.6041 142.672C90.8215 153.545 101.802 162.021 114.403 177.638C126.184 192.238 133.069 208.577 134.342 224.1ZM129.126 270.184C130.196 282.857 137.284 293.134 144.139 303.077C148.613 309.566 152.839 315.697 155.494 322.413C160.874 336.021 155.803 356.405 144.45 368.517C139.63 366.229 134.843 363.818 130.132 361.416C126.415 359.522 122.703 357.626 118.972 355.8C71.9561 332.806 21.5076 320.781 -26.9166 321.032C-33.0789 321.061 -39.2649 321.282 -45.4583 321.498C-59.1305 321.982 -72.3621 322.401 -85.3596 320.973C-67.3902 311.848 -46.4549 308.515 -26.1212 305.294C-19.5255 304.251 -12.7104 303.17 -6.07088 301.905C45.4089 292.113 93.696 269.458 134.137 236.251C134.086 236.678 134.095 237.121 134.034 237.547C133.535 241.018 128.715 265.349 129.126 270.184ZM157.389 296.337L212.341 315.047C229.78 320.988 247.817 327.132 264.368 335.555C266.123 336.449 267.458 337.345 268.553 338.226C249.836 337.825 232.304 344.936 215.322 351.928C202.807 357.083 189.868 362.41 176.801 364.461C170.639 365.434 164.261 365.69 157.928 365.757C166.608 351.398 169.472 332.798 164.036 319.039C160.989 311.349 156.27 304.494 151.695 297.865C150.744 296.487 149.809 295.121 148.891 293.76C152.19 294.679 155.427 295.67 157.389 296.337ZM207.27 392.247C202.816 389.503 198.228 387.097 193.499 385.233C187.44 382.84 181.305 381.239 175.375 379.685C171.445 378.656 167.382 377.595 163.472 376.328C162.178 375.91 160.883 375.376 159.589 374.905C165.762 374.806 172.008 374.51 178.227 373.53C192.366 371.307 205.813 365.77 218.818 360.418C235.494 353.55 251.324 347.123 267.922 347.378C250.344 368.015 230.464 382.697 207.27 392.247ZM245.091 138.795C264.839 145.757 285.255 152.96 304.457 160.968C306.683 161.902 308.785 162.783 310.192 164.1C314.944 168.534 312.073 177.828 307.379 184.602C301.705 192.805 294.674 199.848 286.488 205.544C284.893 206.654 283.249 207.723 281.604 208.794C275.577 212.702 269.343 216.746 264.945 223.04C257.67 233.479 258.024 245.882 258.374 257.872C258.587 265.173 258.787 272.065 257.386 278.487C253.872 294.608 238.206 307.481 221.716 307.826C221.25 307.835 220.827 307.98 220.407 308.117C218.705 307.535 216.989 306.936 215.298 306.36L160.346 287.65C157.197 286.579 148.14 283.797 142.288 282.715C140.184 278.448 138.67 274.078 138.275 269.411C137.909 265.108 138.531 260.762 139.45 256.295C139.513 256.273 139.575 256.286 139.637 256.262C139.849 256.178 140.07 256.064 140.284 255.978C142.144 255.313 144.02 254.635 145.915 253.949C184.845 243.263 196.663 242.499 211.774 245.202C211.867 247.829 213.074 250.37 215.311 252.56C219.655 256.818 226.185 258.044 231.192 255.545C234.194 254.037 236.451 251.1 237.261 247.678C237.996 244.517 237.361 241.322 235.525 238.914C233.061 235.688 228.769 234.072 224.327 234.699C221.941 235.033 219.825 235.944 218.085 236.936C217.991 236.953 217.909 237.002 217.816 237.022C208.858 235.174 201.686 234.145 191.934 234.869C211.807 224.999 230.793 212.521 245.729 195.561C246.886 196.108 248.113 196.541 249.445 196.72C253.058 197.203 256.572 196.159 259.094 193.858C261.61 191.552 262.961 188.149 262.806 184.507C262.649 180.87 261.003 177.588 258.293 175.514C255.583 173.439 251.985 172.706 248.426 173.503C244.871 174.302 241.931 176.499 240.366 179.533C240.285 179.685 240.21 179.837 240.139 179.992C239.567 181.233 239.25 182.504 239.186 183.789C239.122 185.279 239.473 186.719 240.086 188.024C223.872 207.052 201.92 220.391 179.253 230.73C195.792 216.055 210.096 197.671 216.393 179.396C217.86 179.436 219.381 179.36 220.924 178.987C225.602 177.853 229.158 174.267 229.764 170.039C230.415 165.624 227.835 161.087 223.479 159.001C220.407 157.539 216.691 157.316 212.736 158.352C209.194 159.285 205.72 161.537 204.198 164.829C203.604 166.114 203.308 167.558 203.419 169.145C203.621 172.029 205.083 174.408 207.751 176.283C198.332 204.199 168.201 232.681 141.937 245.234C142.393 243.135 142.815 241.014 143.128 238.863C144.892 226.665 143.179 213.605 138.342 200.798C164.343 177.064 178.986 148.644 189.722 118.237C207.834 125.613 226.73 132.32 245.091 138.795ZM192.219 79.1743C189.257 89.7219 186.183 100.158 182.727 110.375C182.724 110.386 182.718 110.395 182.715 110.406C182.711 110.413 182.713 110.422 182.709 110.429C172.524 140.517 158.881 168.644 134.442 191.887C131.024 185.005 126.715 178.272 121.552 171.874C108.279 155.429 96.9289 146.635 81.269 135.435C83.4505 127.883 87.5685 120.028 93.8898 111.446C117.559 79.273 154.957 58.4009 194.675 54.8693C196.374 61.9747 194.547 70.8844 192.219 79.1743ZM156.312 46.6396C172.149 41.1611 182.954 41.0477 189.349 46.1753C148.727 51.0725 110.81 72.9537 86.4951 106.008C84.6757 108.481 83.0574 110.896 81.5561 113.285C83.2604 99.9916 83.5877 86.6965 82.6057 73.6538C116.129 61.0515 140.939 51.9591 156.312 46.6396ZM59.9735 19.0715C67.0153 34.86 71.4093 52.2625 73.1721 70.3177C73.1575 70.4986 73.2032 70.6741 73.2105 70.8569C74.7795 87.4497 74.1522 104.578 71.104 121.551C67.9351 139.189 62.3415 156.671 54.1714 174.356C48.7168 186.165 42.112 198.071 34.3186 210.167C-2.47588 267.277 -50.485 303.742 -101.745 313.961C-101.756 313.93 -101.765 313.899 -101.776 313.868C-92.0722 297.311 -86.8937 279.137 -81.8816 261.484C-78.5573 249.763 -75.1195 237.649 -70.389 226.133C-63.0528 208.26 -54.0379 190.655 -45.3175 173.623C-33.194 149.929 -20.6519 125.436 -12.2332 99.5748C-11.1945 96.3868 -10.2181 93.1786 -9.24342 89.9705C-6.84251 82.079 -4.36479 73.9207 -0.974619 66.4222C-0.868562 66.1937 -0.768022 65.9652 -0.663793 65.7367C9.57621 43.5667 28.3173 25.6907 45.7966 9.88217C45.9173 9.85658 46.038 9.82915 46.1586 9.80355C49.1465 9.16375 51.3993 8.77622 53.248 9.67011C56.106 11.0503 58.3424 15.4155 59.9735 19.0715ZM-120.002 242.281C-119.238 234.805 -118.389 226.919 -117.023 219.071C-117.157 220.811 -117.285 222.532 -117.413 224.226C-118.943 244.628 -120.711 268.623 -116.97 292.028C-117.583 296.098 -120.814 318.942 -120.181 320.119C-120.053 321.309 -119.521 322.456 -118.506 323.254C-106.962 332.288 -103.609 335.007 -99.2914 339.535L-87.2265 355.78C-88.32 355.025 -89.43 354.265 -90.5143 353.513C-100.621 346.514 -111.075 339.273 -122.94 332.44C-125.413 331.012 -127.676 329.598 -128.271 327.921C-128.66 326.828 -128.485 325.146 -128.32 323.525L-120.002 242.281ZM-385.907 161.158C-385.799 161.18 -385.706 161.231 -385.6 161.257C-381.116 180.778 -383.186 201.766 -385.097 220.406C-385.836 227.652 -386.602 235.148 -388.714 242.137C-390.129 246.815 -392.126 251.29 -394.326 255.997C-398.47 264.936 -402.9 273.964 -407.501 282.821L-410.794 289.116C-411.535 290.526 -412.277 291.959 -413.021 293.383C-412.685 290.648 -412.449 287.894 -412.222 285.141C-411.754 279.379 -411.315 273.939 -409.871 268.749C-408.636 264.303 -406.667 260.048 -404.588 255.576C-403.46 253.198 -402.366 250.796 -401.37 248.372C-395.107 233.189 -393.024 217 -391.013 201.345C-390.144 194.587 -389.248 187.6 -389.433 180.466C-389.599 173.991 -390.649 167.631 -392.554 161.486C-390.384 160.873 -388.153 160.703 -385.907 161.158ZM-298.783 486.742C-315.244 469.136 -330.591 450.436 -344.73 430.867C-326.44 451.518 -308.156 468.22 -289.218 481.475L-286.566 483.325C-272.223 493.352 -257.393 503.722 -244.848 516.004C-238.751 521.969 -232.289 529.864 -226.158 538.724C-226.465 538.637 -226.776 538.567 -227.079 538.468C-256.485 529.009 -279.826 507.009 -298.783 486.742ZM-214.594 539.58C-222.179 527.808 -230.554 517.145 -238.422 509.443C-245.632 502.387 -253.473 496.019 -261.504 489.997C-259.758 491.026 -258.03 492.072 -256.276 493.096C-240.973 502.036 -225.15 511.284 -213.281 524.197C-209.83 527.952 -208.351 530.912 -208.759 533.235C-208.922 534.173 -208.711 535.056 -208.349 535.864C-208.836 536.915 -209.64 537.728 -210.823 538.379C-211.849 538.946 -213.149 539.333 -214.594 539.58ZM-295.005 448.397C-288.995 452.525 -282.651 456.612 -276.522 460.568C-256.66 473.375 -236.354 486.508 -222.497 503.74C-231.76 496.796 -241.803 490.919 -251.643 485.169C-255.536 482.894 -259.421 480.627 -263.248 478.296C-288.731 462.791 -312.252 444.135 -333.157 422.835C-343.451 412.342 -353.276 401.023 -362.779 390.075C-364.754 387.807 -365.63 385.116 -366.643 382.006C-366.746 381.692 -366.881 381.335 -366.989 381.012C-364.125 384.127 -361.357 387.39 -358.682 390.578C-340.184 412.634 -318.762 432.09 -295.005 448.397ZM-282.774 319.536C-281.273 315.569 -279.431 311.773 -277.486 307.764C-276.458 305.656 -275.441 303.563 -274.465 301.406C-269.822 291.202 -266.366 280.47 -263.024 270.091C-261.899 266.596 -260.771 263.099 -259.602 259.624C-248.9 227.813 -234.299 197.318 -216.212 168.991L-215.792 168.326C-209.178 157.985 -201.85 146.377 -201.958 133.51C-200.834 132.925 -199.749 132.276 -198.574 131.766C-197.939 131.49 -196.994 131.126 -195.937 130.808C-195.919 143.01 -199.539 155.1 -206.329 165.257C-208.095 167.893 -210.05 170.382 -212.116 173.017C-213.974 175.382 -215.826 177.747 -217.54 180.215C-222.387 187.18 -226.028 194.775 -229.546 202.116L-239.267 222.384C-241.708 227.467 -244.222 232.715 -246.193 238.214C-247.492 241.826 -248.536 245.511 -249.549 249.072C-250.112 251.039 -250.67 253.008 -251.273 254.966C-254.288 264.766 -258.401 274.322 -262.702 284.062C-269.716 299.971 -276.915 315.431 -285.859 329.175C-284.902 325.85 -283.935 322.616 -282.774 319.536ZM-87.8153 538.595C-103.526 534.449 -116.475 522.409 -127.899 511.785L-263.759 385.448C-265.602 383.734 -267.421 381.93 -269.082 380.07C-256.197 392.565 -242.03 402.911 -226.984 412.119C-188.674 441.513 -144.834 471.65 -109.718 492.151C-93.3339 501.72 -71.0345 516.437 -61.7325 535.776C-69.4564 539.808 -79.4167 540.808 -87.8153 538.595ZM-52.6464 527.954C-53.162 528.711 -53.7198 529.436 -54.3287 530.122C-65.1301 509.383 -88.0951 494.147 -105.09 484.224C-125.129 472.525 -148.043 457.653 -171.123 441.588C-169.964 442.151 -168.81 442.711 -167.645 443.275C-155.067 449.368 -142.06 455.667 -129.419 462.387C-114.445 470.35 -99.5986 479 -85.2901 488.092C-70.5481 497.454 -53.5223 510.451 -52.6464 527.954ZM-156.284 413.071C-116.449 426.156 -81.9657 452.752 -59.1854 487.952C-54.4183 495.322 -51.3408 501.945 -49.9017 507.917C-57.1465 496.326 -69.3138 487.367 -80.3639 480.344C-94.8718 471.125 -109.925 462.354 -125.105 454.285C-137.9 447.482 -150.985 441.14 -163.643 435.011C-183.903 425.202 -203.611 415.629 -221.936 404.429C-229.731 398.44 -237.292 392.492 -244.491 386.66C-227.685 395.087 -208.547 399.661 -189.793 404.125C-178.595 406.792 -167.016 409.545 -156.284 413.071ZM-190.888 178.908C-198.524 200.873 -206.72 223.557 -216.883 245.564C-223.528 259.954 -231.02 274.057 -239.737 287.475C-248.461 300.896 -260.504 316.588 -276.027 330.817C-267.739 317.447 -260.923 302.79 -254.299 287.773C-249.882 277.77 -245.658 267.941 -242.494 257.668C-241.872 255.649 -241.295 253.615 -240.717 251.586C-239.702 248.01 -238.744 244.641 -237.55 241.318C-235.736 236.265 -233.328 231.226 -230.985 226.358L-221.264 206.091C-217.9 199.073 -214.42 191.818 -210 185.454C-208.386 183.135 -206.64 180.914 -204.891 178.689C-202.809 176.031 -200.655 173.289 -198.698 170.36C-191.477 159.572 -187.441 146.927 -186.867 134.033C-186.715 134.356 -186.56 134.579 -186.41 134.952C-181.058 148.225 -185.686 163.946 -190.888 178.908ZM-278.347 273.736C-276.019 258.227 -273.611 242.194 -268.431 227.374C-261.892 208.65 -251.026 191.775 -240.519 175.464C-231.453 161.383 -222.733 148.783 -211.86 139.981C-213.703 147.929 -218.646 155.751 -223.528 163.387L-223.954 164.054C-234.244 180.173 -243.429 196.98 -251.443 214.331C-257.818 228.134 -263.455 242.283 -268.303 256.693C-269.488 260.21 -270.625 263.742 -271.762 267.276C-274.801 276.714 -277.97 286.424 -281.96 295.566C-280.58 288.277 -279.422 280.905 -278.347 273.736ZM-302.482 348.801C-303.088 349.91 -303.742 350.978 -304.45 352.002C-304.543 352.091 -304.634 352.181 -304.728 352.268C-304.958 352.405 -305.178 352.552 -305.41 352.687C-304.395 351.448 -303.439 350.126 -302.482 348.801ZM-372.584 177.206C-371.388 183.745 -372.387 190.66 -373.99 198.152C-373.522 189.308 -373.546 180.255 -374.568 171.232C-373.632 173.203 -372.943 175.25 -372.584 177.206ZM-420.736 265.104C-423.804 232.975 -425.357 199.502 -408.347 174.395C-406.32 171.406 -403.738 168.461 -400.836 166.07C-399.523 170.834 -398.74 175.722 -398.608 180.701C-398.442 187.132 -399.296 193.759 -400.119 200.171C-402.055 215.238 -404.058 230.812 -409.854 244.87C-410.807 247.18 -411.862 249.473 -412.915 251.712C-415.08 256.381 -417.276 261.122 -418.719 266.288C-419.293 268.358 -419.697 270.438 -420.041 272.52C-420.27 270.025 -420.504 267.55 -420.736 265.104Z" fill="#FEF6D4"/>
</svg>
