<svg width="312" height="466" viewBox="0 0 312 466" fill="none" xmlns="http://www.w3.org/2000/svg">
<path d="M171.934 465.764C170.623 465.469 169.545 464.464 169.195 463.107C166.986 454.527 169.272 445.701 171.112 438.612C182.107 396.217 194.446 352.678 207.818 309.078C198.286 313.508 189.514 317.463 181.222 321.081C173.037 362.346 163.913 396.687 131.989 429.803C127.098 434.878 119.517 441.511 110.191 440.548C100.03 439.493 93.5107 429.591 92.5123 420.807C91.4993 411.865 94.6754 403.354 97.731 396.076C102.752 384.125 108.693 373.7 115.289 364.322C115.274 364.337 115.26 364.352 115.247 364.366C94.8821 384.871 63.4965 412.185 26.2229 412.653C21.0883 412.72 13.5527 412.309 7.45808 407.997C1.66334 403.895 -2.1968 395.375 1.37806 388.22C1.94857 387.075 16.0762 359.935 77.913 335.745C90.2211 330.932 102.836 326.55 115.304 322.361C88.7034 324.028 66.2504 320.679 46.2988 312.241C41.7182 310.303 36.5781 307.698 33.1697 303.059C29.6479 298.262 28.3989 290.634 32.8258 285.336C36.0752 281.454 40.9447 280.379 45.2528 279.675C80.4912 273.92 125.441 280.243 168.881 297.043C176.605 291.122 185.179 285.51 194.879 280.031C177.641 275.174 160.696 269.818 144.232 264.616C118.067 256.346 91.011 247.795 62.8291 241.272C48.6979 238.004 32.6851 234.297 22.2531 225.147C17.3507 220.848 15.8421 214.103 18.4112 207.964C21.0846 201.579 27.1975 197.771 33.9833 198.267C95.1271 202.705 155 221.886 207.114 253.743C212.382 256.962 218.221 260.788 222.476 266.098C235.357 260.22 248.561 254.851 261.357 249.648C262.604 249.142 263.848 248.635 265.086 248.131L147.691 211.288C134.602 207.18 121.065 202.932 108.968 195.455C98.5374 189.01 93.2638 180.601 94.4945 172.386C95.8439 163.407 104.354 158.029 111.69 156.835C119.054 155.636 126.344 157.535 133.178 159.583C187.655 175.901 239.385 203.948 282.938 240.757L284.496 240.102C298.084 234.313 312.241 227.986 327.551 220.859C295.811 210.171 264.407 192.573 234.792 175.313L234.457 175.117C226.342 170.333 224.994 161.699 227.262 155.267C229.575 148.704 236.167 142.705 245.679 144.09C262.074 146.478 283.594 150.137 304.667 157.301C330.276 166.006 350.006 187.425 363.055 203.776C381.611 194.525 398.03 185.904 413.172 177.46C414.282 176.843 415.385 176.219 416.486 175.594L379.168 161.985C347.362 152.569 317.145 136.296 291.781 114.921C289.682 113.151 284.763 109.006 285.342 103.209C285.591 100.734 286.825 98.3647 289.115 95.9664C305.731 78.5639 334.015 90.3142 345.409 96.173C378.014 112.945 411.033 138.643 434.323 165.293C450.455 155.773 467.095 145.383 484.946 133.678C473.186 128.382 461.734 122.785 450.607 117.347C433.085 108.784 414.97 99.9295 395.72 92.2958C372.562 83.1119 348.313 70.5243 344.067 46.8078C343.133 41.5798 343.709 37.2163 345.78 33.8345C349.551 27.6815 357.227 25.4129 368.599 27.0929C424.475 35.3499 476.785 70.6797 505.963 119.666C523.326 107.931 540.015 96.2753 554.656 85.9636C474.74 55.9442 466.495 26.0381 466.739 14.3626C466.863 8.50025 469.2 3.70357 472.424 2.7C522.272 -12.827 560.23 42.4444 576.012 70.8771L578.078 69.4147C605.18 50.2298 633.203 30.3924 661.432 11.5804C666.25 8.36863 672.051 9.13822 675.534 13.4523C678.549 17.1887 679.134 23.3656 674.415 27.9447C650.68 50.9629 623.625 74.0213 593.951 96.5276C612.059 121.86 615.637 159.435 616.687 189.706C616.939 196.985 617.287 206.953 612.033 214.706C608.853 219.402 603.06 222.552 597.275 222.727C592.65 222.866 588.675 221.1 586.095 217.75C583.897 214.894 583.127 211.406 582.566 208.858C575.614 177.29 572.265 144.836 572.598 112.285C557.566 123.12 541.503 134.133 524.721 145.114C534.078 157.501 537.716 174.011 539.102 186.156C541.156 204.164 540.657 222.354 537.618 240.221C534.043 261.232 526.796 275.535 515.464 283.947C509.666 288.252 501.549 289.674 497.252 284.06C495.55 281.836 495.156 279.189 494.869 277.256L494.714 276.211C489.455 240.664 483.55 200.769 493.108 165.262C480.747 172.927 467.958 180.636 454.326 188.637C462.955 200.453 468.207 215.666 469.216 231.968C470.584 254.052 464.736 275.811 458.835 294.182C453.39 311.14 445.644 329.691 429.505 338.71C427.293 339.95 423.921 341.511 420.251 340.765C416.956 340.019 411.347 337.162 410.83 325.05C408.809 277.668 413.059 240.347 424.555 205.654C408.934 214.36 393.089 222.722 377.303 230.591C388.13 262.004 386.825 296.97 373.6 327.044C366.334 343.567 356.699 355.164 344.959 361.511C342.293 362.951 338.28 364.794 333.984 363.659C327.941 362.125 324.437 355.926 324.114 346.203C322.861 308.375 328.5 276.712 341.794 247.504C328.586 253.62 316.606 258.965 305.391 263.748C302.701 264.896 300.022 266.076 297.347 267.261C302.176 288.298 307.099 312.433 307.289 336.445C307.466 358.69 303.456 390.614 283.358 416.369C277.728 423.582 271.875 426.688 265.961 425.601C255.476 423.641 253.302 411.229 254.776 400.232C260.434 358.032 269.24 315.794 280.972 274.567C266.958 280.976 252.929 287.68 239.295 294.195L237.202 295.195C242.636 309.418 244.684 326.07 243.132 343.604C241.294 364.346 235.119 384.094 228.41 404.185C223.515 418.837 218.786 431.891 210.47 443.25C200.517 456.843 186.839 465.082 172.942 465.851C172.596 465.866 172.256 465.837 171.934 465.764ZM214.544 298.706C215.123 298.836 215.674 299.108 216.142 299.514C217.235 300.465 217.665 301.969 217.237 303.355C202.96 349.483 189.823 395.607 178.194 440.448C176.46 447.134 175.158 452.852 175.727 458.21C186.336 456.56 196.697 449.672 204.563 438.928C212.258 428.419 216.773 415.925 221.469 401.864C228.037 382.206 234.077 362.907 235.845 342.955C237.412 325.267 235.101 308.623 229.16 294.82C228.382 293.017 229.171 290.923 230.942 290.078L236.141 287.596C252.154 279.944 268.712 272.032 285.194 264.623C286.498 264.036 288.02 264.261 289.098 265.203C289.234 265.321 289.36 265.448 289.473 265.583C289.279 263.998 290.139 262.45 291.627 261.793L293.781 260.839C296.689 259.552 299.594 258.265 302.52 257.019C316.249 251.165 331.141 244.457 348.048 236.512C349.472 235.847 351.156 236.158 352.243 237.289C353.331 238.421 353.574 240.119 352.85 241.51C336.669 272.59 330.06 304.803 331.422 345.96C331.518 348.841 332.134 355.643 335.784 356.57C337.193 356.884 338.954 356.44 341.478 355.076C351.752 349.523 360.307 339.1 366.902 324.099C379.803 294.758 380.69 260.474 369.332 230.041C368.676 228.286 369.457 226.317 371.137 225.486C390.628 215.843 410.238 205.423 429.425 194.519C430.761 193.757 432.431 193.914 433.605 194.914C434.775 195.91 435.198 197.536 434.658 198.976C421.074 235.364 415.977 274.149 418.135 324.737C418.303 328.68 419.32 333.063 421.664 333.59C421.679 333.594 421.692 333.595 421.708 333.597C422.674 333.795 424.056 333.378 425.934 332.329C439.822 324.567 446.606 308.332 451.869 291.946C457.561 274.224 463.206 253.291 461.913 232.419C460.9 216.055 455.272 200.967 446.065 189.933C445.375 189.107 445.085 188.019 445.269 186.961C445.454 185.902 446.098 184.977 447.027 184.434C465.093 173.878 481.638 163.867 497.603 153.832C498.927 153.004 500.627 153.101 501.843 154.08C503.059 155.06 503.52 156.7 502.99 158.17C489.976 194.225 496.062 235.361 501.948 275.141L502.103 276.185C502.29 277.454 502.504 278.893 503.058 279.616C504.301 281.24 508.326 280.139 511.102 278.077C520.846 270.842 527.16 258.057 530.406 238.995C533.33 221.808 533.811 204.308 531.836 186.984C530.444 174.793 526.668 157.912 516.584 146.732C515.867 145.937 515.534 144.869 515.673 143.809C515.812 142.749 516.41 141.803 517.306 141.219C537.47 128.108 556.624 114.934 574.235 102.061C575.361 101.237 576.859 101.132 578.093 101.776C579.327 102.425 580.086 103.719 580.05 105.112C579.11 139.539 582.359 173.912 589.71 207.284C590.264 209.8 590.776 211.84 591.89 213.287C593.31 215.132 595.481 215.463 597.052 215.417C600.457 215.313 604.128 213.335 605.977 210.606C609.599 205.261 609.66 198.093 609.376 189.96C608.321 159.592 604.71 121.705 585.967 98.0814C585.354 97.31 585.08 96.3229 585.204 95.3449C585.329 94.3669 585.844 93.4821 586.633 92.888C617.208 69.8699 645.028 46.2521 669.319 22.6947C671.601 20.481 670.152 18.4318 669.84 18.0443C669.322 17.4045 667.867 16.081 665.484 17.6659C637.341 36.4193 609.36 56.2257 582.301 75.3813L576.875 79.2201C576.02 79.827 574.91 79.9952 573.92 79.7941C572.898 79.5528 572.029 78.8819 571.536 77.9551C558.054 52.6739 521.758 -4.42737 475.199 9.49285C474.563 10.4983 473.277 13.9459 474.645 19.6565C477.573 31.8859 493.037 56.18 563.693 81.4868C564.977 81.9475 565.898 83.0827 566.083 84.4354C566.268 85.7863 565.684 87.128 564.569 87.9159C547.726 99.8052 527.69 113.853 506.804 127.914C505.96 128.483 504.846 128.627 503.923 128.441C502.93 128.207 502.081 127.571 501.58 126.684C473.918 77.8473 422.564 42.4517 367.526 34.3244C361.892 33.4908 354.627 33.3921 352.018 37.6514C350.91 39.4593 350.657 42.1062 351.268 45.5173C354.879 65.7002 377.129 77.0521 398.418 85.4956C417.93 93.2317 436.176 102.151 453.821 110.773C466.806 117.12 480.233 123.683 494.012 129.695C495.24 130.23 496.076 131.395 496.193 132.729C496.308 134.064 495.685 135.354 494.568 136.095C473.488 150.04 454.132 162.158 435.399 173.141C433.866 174.038 431.91 173.704 430.763 172.357C407.974 145.569 374.816 119.517 342.063 102.67C334.319 98.6828 307.989 86.7862 294.409 101.008C293.302 102.169 292.701 103.152 292.622 103.933C292.447 105.69 294.749 107.852 296.495 109.324C321.122 130.079 350.465 145.873 381.352 155C381.425 155.022 381.496 155.046 381.569 155.071L424.202 170.624C424.787 170.799 425.572 171.053 426.373 171.317C427.742 171.768 428.719 172.984 428.865 174.419C429.013 175.854 428.3 177.241 427.048 177.959L424.813 179.245C422.129 180.787 419.444 182.33 416.736 183.842C400.773 192.743 383.409 201.835 363.653 211.642C362.1 212.414 360.217 211.986 359.147 210.622C346.726 194.773 327.315 172.72 302.312 164.22C281.802 157.246 260.712 153.665 244.624 151.322C238.853 150.481 235.38 154.228 234.159 157.692C232.979 161.036 233.325 165.957 238.174 168.816L238.471 168.99C270.5 187.657 304.614 206.712 338.618 216.678C340.075 217.106 341.118 218.389 341.235 219.903C341.353 221.417 340.523 222.846 339.148 223.495C320.447 232.315 303.506 239.947 287.359 246.826L283.697 248.365C282.42 248.902 280.954 248.674 279.901 247.775C279.767 247.659 279.632 247.544 279.496 247.429C279.498 247.458 279.5 247.486 279.502 247.517C279.568 249.054 278.666 250.469 277.244 251.056C272.904 252.845 268.521 254.626 264.111 256.419C250.484 261.958 236.392 267.689 222.809 273.992C221.147 274.765 219.174 274.185 218.186 272.644C214.738 267.248 208.691 263.276 203.294 259.976C152.169 228.727 93.4376 209.907 33.4513 205.555C29.0773 205.237 26.2485 208.175 25.1569 210.785C24.6394 212.017 23.2533 216.298 27.0731 219.649C36.1209 227.584 51.1865 231.07 64.4766 234.145C92.9383 240.733 120.133 249.328 146.433 257.638C165.602 263.698 185.426 269.963 205.527 275.379C206.981 275.77 208.045 277.012 208.211 278.507C208.376 280 207.608 281.444 206.277 282.145C192.861 289.19 181.562 296.365 171.739 304.071C170.718 304.872 169.351 305.073 168.138 304.598C125.288 287.703 80.9246 281.251 46.4286 286.886C43.4188 287.378 40.0706 288.065 38.4359 290.02C36.5159 292.317 37.2455 296.251 39.0631 298.726C41.422 301.936 45.4814 303.953 49.144 305.503C76.6988 317.154 109.597 318.536 152.658 309.852C154.545 309.471 156.403 310.617 156.911 312.477C157.416 314.332 156.395 316.264 154.576 316.891C146.64 319.63 138.545 322.319 130.718 324.92C114.164 330.42 97.0453 336.107 80.5791 342.549C21.3352 365.723 8.04873 391.225 7.91891 391.479C6.18176 394.961 8.46203 399.743 11.684 402.025C14.9992 404.37 19.5852 405.421 26.1296 405.337C60.7225 404.902 90.5941 378.804 110.054 359.209C130.718 338.403 140.468 330.027 159.734 316.533C161.212 315.5 163.216 315.694 164.465 316.99C164.562 317.092 164.662 317.189 164.766 317.281C165.566 317.973 166.026 318.979 166.03 320.035C166.032 321.094 165.576 322.099 164.781 322.796C136.405 347.625 117.441 368.039 104.471 398.904C101.774 405.328 98.9635 412.784 99.7791 419.978C100.465 426.01 104.831 432.62 110.941 433.269C115.62 433.753 120.634 431.039 126.719 424.723C157.745 392.541 166.366 358.69 174.414 317.781C174.646 316.602 175.442 315.612 176.546 315.134C187.397 310.427 199.056 305.137 212.185 298.96C212.937 298.611 213.767 298.531 214.544 298.706ZM290.221 268.91C290.214 268.935 290.208 268.959 290.201 268.987C277.463 312.272 267.982 356.756 262.024 401.199C261.246 407.015 261.452 417.098 267.088 418.365C267.154 418.38 267.221 418.393 267.287 418.407C271.047 419.098 274.965 415.232 277.591 411.867C296.392 387.774 300.143 357.582 299.977 336.498C299.79 313.169 295.149 290.369 290.221 268.91ZM124.318 164.754C120.409 163.875 116.582 163.443 112.866 164.048C107.913 164.855 102.498 168.35 101.728 173.468C100.622 180.831 109.11 186.946 112.811 189.233C124.132 196.229 137.223 200.336 149.882 204.308L274.852 243.528C232.775 208.745 183.202 182.197 131.075 166.582C128.8 165.902 126.547 165.257 124.318 164.754Z" fill="#FEF6D4"/>
</svg>
