<svg class=" shadow-md dark:border-slate-700" viewBox="0 0 1234.64 617.32" style="width: 1234.64px; height: 617.32px;" xmlns="http://www.w3.org/2000/svg" preserveAspectRatio="none"><rect class="bg" id="bg" x="0" y="0" width="1234.64" height="617.32" fill="#FE7CAD"/><g transform="translate(526.6666666666666 -40.33333333333333)" opacity="0.32"><path d="M240,186Q192,226,146.5,225Q101,224,68.5,185Q36,146,58.5,89.5Q81,33,139.5,44Q198,55,243,100.5Q288,146,240,186Z" fill="none" stroke="#FCFF5C" stroke-width="10"/></g><g transform="translate(816.6906666666666 59.69066666666666)" opacity="0.32"><path d="M194.5,173.5Q181,224,131,210.5Q81,197,59.5,160Q38,123,53,75Q68,27,117.5,37.5Q167,48,187.5,85.5Q208,123,194.5,173.5Z" fill="none" stroke="#FE619A" stroke-width="10"/></g><g transform="translate(170 249)" opacity="0.32"><path d="M216.5,180.5Q187,224,135,226.5Q83,229,47.5,183Q12,137,45.5,87Q79,37,130,48.5Q181,60,213.5,98.5Q246,137,216.5,180.5Z" fill="none" stroke="#928FFF" stroke-width="10"/></g><g transform="translate(-16.309333333333342 175.69066666666666)" opacity="0.32"><path d="M195.5,174Q182,225,125.5,221.5Q69,218,42,170.5Q15,123,47.5,85.5Q80,48,131.5,34.5Q183,21,196,72Q209,123,195.5,174Z" fill="none" stroke="#FFFFFF" stroke-width="10"/></g><g transform="translate(646 416)" opacity="0.32"><path d="M228,183Q189,226,132,238Q75,250,63,195Q51,140,71,97.5Q91,55,150,37Q209,19,238,79.5Q267,140,228,183Z" fill="none" stroke="#FCFF5C" stroke-width="10"/></g><g transform="translate(-41.66666666666667 398.3333333333333)" opacity="0.32"><path d="M211.5,178Q185,223,138.5,213Q92,203,54.5,168Q17,133,52.5,94.5Q88,56,140.5,43Q193,30,215.5,81.5Q238,133,211.5,178Z" fill="none" stroke="#FE619A" stroke-width="10"/></g><g transform="translate(122.69066666666666 41.69066666666666)" opacity="0.32"><path d="M198,160.5Q166,198,123.5,197.5Q81,197,41,160Q1,123,41.5,87.5Q82,52,131,38.5Q180,25,205,74Q230,123,198,160.5Z" fill="none" stroke="#928FFF" stroke-width="10"/></g><g transform="translate(830.6906666666666 218.69066666666666)" opacity="0.32"><path d="M187.5,163.5Q170,204,124,203.5Q78,203,41.5,163Q5,123,37.5,77Q70,31,118.5,39.5Q167,48,186,85.5Q205,123,187.5,163.5Z" fill="none" stroke="#FFFFFF" stroke-width="10"/></g><g transform="translate(55.69066666666666 -39.30933333333334)" opacity="0.32"><path d="M208,175.5Q184,228,134,210.5Q84,193,62.5,158Q41,123,59.5,84Q78,45,130,34Q182,23,207,73Q232,123,208,175.5Z" fill="none" stroke="#FCFF5C" stroke-width="10"/></g><g transform="translate(303.69066666666663 -65.30933333333334)" opacity="0.32"><path d="M209,167.5Q174,212,119.5,218Q65,224,42.5,173.5Q20,123,42,71.5Q64,20,118,29.5Q172,39,208,81Q244,123,209,167.5Z" fill="none" stroke="#FE619A" stroke-width="10"/></g><g transform="translate(748.6906666666666 79.69066666666666)" opacity="0.32"><path d="M202.5,156.5Q162,190,115.5,204Q69,218,38.5,170.5Q8,123,39.5,78Q71,33,126.5,27Q182,21,212.5,72Q243,123,202.5,156.5Z" fill="none" stroke="#928FFF" stroke-width="10"/></g><g transform="translate(858.6906666666666 -55.30933333333334)" opacity="0.32"><path d="M193.5,170Q177,217,121.5,220Q66,223,36.5,173Q7,123,41,81Q75,39,122.5,41Q170,43,190,83Q210,123,193.5,170Z" fill="none" stroke="#FFFFFF" stroke-width="10"/></g><g transform="translate(883.6906666666666 112.69066666666666)" opacity="0.32"><path d="M198.5,160.5Q166,198,123,198.5Q80,199,40,161Q0,123,43,91Q86,59,131.5,45Q177,31,204,77Q231,123,198.5,160.5Z" fill="none" stroke="#FCFF5C" stroke-width="10"/></g><g transform="translate(169.69066666666666 -54.30933333333334)" opacity="0.32"><path d="M196.5,165Q172,207,129,198Q86,189,50.5,156Q15,123,48.5,87.5Q82,52,130.5,40Q179,28,200,75.5Q221,123,196.5,165Z" fill="none" stroke="#FE619A" stroke-width="10"/></g><g transform="translate(365.69066666666663 277.69066666666663)" opacity="0.32"><path d="M186.5,159Q165,195,117,206.5Q69,218,57.5,170.5Q46,123,64,87.5Q82,52,131,38.5Q180,25,194,74Q208,123,186.5,159Z" fill="none" stroke="#928FFF" stroke-width="10"/></g><g transform="translate(102.69066666666666 -16.309333333333342)" opacity="0.32"><path d="M186.5,156.5Q162,190,121.5,193Q81,196,60.5,159.5Q40,123,58,82Q76,41,119,49.5Q162,58,186.5,90.5Q211,123,186.5,156.5Z" fill="none" stroke="#FFFFFF" stroke-width="10"/></g><g transform="translate(87 514)" opacity="0.32"><path d="M241.5,189.5Q196,233,143.5,236.5Q91,240,52.5,193Q14,146,50.5,95Q87,44,151.5,33.5Q216,23,251.5,84.5Q287,146,241.5,189.5Z" fill="none" stroke="#FCFF5C" stroke-width="10"/></g><g transform="translate(228.69066666666666 98.69066666666666)" opacity="0.32"><path d="M202.5,158.5Q164,194,121.5,197Q79,200,57,161.5Q35,123,53.5,79Q72,35,118.5,43Q165,51,203,87Q241,123,202.5,158.5Z" fill="none" stroke="#FE619A" stroke-width="10"/></g><g transform="translate(817 -86)" opacity="0.32"><path d="M208,174.5Q181,218,129.5,220Q78,222,45,176.5Q12,131,44,83.5Q76,36,134.5,29Q193,22,214,76.5Q235,131,208,174.5Z" fill="none" stroke="#928FFF" stroke-width="10"/></g></svg>