<?xml version="1.0" encoding="utf-8"?>
<!-- Generator: Adobe Illustrator 27.5.0, SVG Export Plug-In . SVG Version: 6.00 Build 0)  -->
<svg version="1.1" id="Capa_2" xmlns="http://www.w3.org/2000/svg" xmlns:xlink="http://www.w3.org/1999/xlink" x="0px" y="0px"
	 viewBox="0 0 2372 1898" style="enable-background:new 0 0 2372 1898;" xml:space="preserve">
<path style="fill:#15162B;" d="M467.259,1354.507c-40.275,25.391-88.342,29.871-122.869,11.559
	c6.957-5.969,17.54-7.825,25.937-4.099c2.799,1.256,6.109-0.016,7.362-2.83s-0.013-6.112-2.83-7.362
	c-13.245-5.893-29.578-2.548-39.696,7.642c-2.609-2.502-4.924-5.338-6.796-8.297c0.404-0.298,0.776-0.654,1.1-1.07
	c6.575-8.459,19.37-11.624,29.142-7.201c2.8,1.272,6.109,0.027,7.381-2.778c1.272-2.805,0.027-6.112-2.778-7.381
	c-13.095-5.933-29.287-2.812-39.496,7.105c-0.127-0.725-0.216-1.441-0.263-2.146c-0.313-4.758,1.266-8.342,4.832-10.959
	c3.832-2.816,9.271-3.47,15.029-4.164l3.061-0.382c31.242-4.162,59.914-24.476,77.067-52.7c-3.37-1.6-6.714-3.243-10.03-4.932
	c-15.455,24.977-40.872,42.894-68.508,46.574l-2.925,0.365c-6.61,0.795-14.103,1.697-20.296,6.245
	c-6.596,4.842-9.922,12.191-9.361,20.686c0.893,13.511,11.934,29.382,25.683,36.918c15.949,8.74,34.516,13.038,53.967,13.038
	c26.996,0,55.681-8.285,81.351-24.471l81.578-54.335c-5.276-0.896-10.538-1.86-15.78-2.894L467.259,1354.507z"/>
<path style="fill:#15162B;" d="M1539.086,1202.449c2.083,45.1-16.919,86.801-48.409,106.239c-0.252,0.156-0.509,0.307-0.767,0.456
	c-0.455-7.062,2.709-14.462,8.456-18.589c2.5-1.795,3.072-5.281,1.275-7.784c-1.798-2.501-5.281-3.078-7.784-1.275
	c-9.882,7.096-14.754,19.932-12.676,31.762c-2.831,0.639-5.71,0.982-8.485,1.013c-0.042-0.135-0.089-0.271-0.143-0.404
	c-3.666-9.103-0.276-20.686,7.721-26.375c2.511-1.787,3.097-5.271,1.313-7.779c-1.787-2.508-5.265-3.102-7.778-1.313
	c-10.429,7.418-15.588,20.916-13.394,33.356c-3.603-1.9-5.582-4.693-6.031-8.528c-0.512-4.363,1.465-9.083,3.56-14.084l1.108-2.677
	c10.02-24.801,8.634-54.246-3.799-80.787c-3.828-8.171-8.539-15.714-13.969-22.479c-4.825,0.151-9.652,0.284-14.483,0.409
	c7.351,7.607,13.597,16.658,18.35,26.803c11.123,23.741,12.419,49.939,3.557,71.873l-1.054,2.549
	c-2.44,5.823-5.205,12.422-4.35,19.694c0.912,7.768,5.447,13.994,12.768,17.535c4.695,2.271,10.366,3.375,16.303,3.375
	c5.276,0,10.761-0.872,15.958-2.568c0.628-0.026,1.263-0.159,1.879-0.412c0.474-0.194,0.907-0.446,1.295-0.743
	c2.454-0.988,4.817-2.166,7.031-3.533c34.884-21.535,55.959-67.166,53.692-116.245c-0.371-8.077-2.077-17.49-4.502-27.733
	c-3.68,0.615-7.365,1.187-11.057,1.721C1537.062,1185.894,1538.74,1194.938,1539.086,1202.449z"/>
<path style="fill:#15162B;" d="M2115.321,687.568c-14.566-35.243-31.209-71.823-54.186-100.598
	c-12.406-15.538-25.727-27.432-39.599-35.352c-20.157-11.507-47.423-5.436-62.062,13.812c-20.481,26.939-7.49,63.77,2.076,83.328
	c9.538,19.493,22.121,37.381,34.287,54.681c6.787,9.652,13.809,19.632,20.155,29.703c21.374,33.906,30.376,63.435,27.525,90.273
	c-3.516,33.13-26.307,64.895-60.965,84.973c-34.078,19.743-74.85,26.318-106.56,29.839c-17.417,1.936-34.997,3.261-52.592,3.964
	c-1.226,3.796-2.522,7.565-3.891,11.306c19.299-0.662,38.616-2.063,57.714-4.185c32.797-3.641,75.046-10.486,110.923-31.272
	c37.727-21.854,62.575-56.79,66.467-93.449c3.127-29.429-6.419-61.289-29.18-97.399c-6.501-10.308-13.602-20.408-20.47-30.171
	c-11.916-16.946-24.24-34.467-33.389-53.167c-8.438-17.249-20.078-49.498-3.219-71.674c11.322-14.89,32.253-19.659,47.654-10.872
	c12.638,7.214,24.888,18.191,36.409,32.623c22.107,27.688,38.343,63.414,52.593,97.897c24.768,59.946,31.779,114.859,20.833,163.214
	c-9.927,43.856-36.281,85.053-74.202,116c-34.44,28.105-78.516,47.938-127.464,57.356c-43.904,8.448-99.158,5.663-145.696,2.697
	c-2.567,3.607-5.205,7.164-7.909,10.669c25.43,1.648,53.86,3.419,82.012,3.419c25.632,0,51.029-1.468,73.7-5.831
	c50.757-9.764,96.543-30.398,132.41-59.666c39.84-32.517,67.553-75.909,78.025-122.182
	C2148.186,806.859,2140.985,749.686,2115.321,687.568z"/>
<path style="fill:#F8B691;" d="M1819.508,953.498c1.368-3.741,2.665-7.51,3.891-11.306c4.539-14.059,8.094-28.487,10.573-43.208
	c7.066-41.982,4.246-83.578-6.401-123.059c-25.876-95.961-97.992-179.421-186.766-225.516
	c-119.09-61.837-262.715-63.498-392.314-28.711c-129.599,34.787-247.503,103.262-359.462,177.23
	c-40.294,26.62-85.383,55.168-131.997,55.977c-25.802-64.915-69.171-168.948-83.978-173.886
	c-19.824-6.612-69.061,43.961-116.617,112.695c-38.401-2.835-77.412,1.497-114.272,12.665
	c-47.334-49.337-90.706-81.488-107.055-73.746c-20.362,9.642-75.025,231.408-76.145,235.957
	c-35.818,83.138-31.241,180.947,15.485,264.958c33.206,59.703,82.07,101.987,138.962,130.965c3.316,1.689,6.66,3.332,10.03,4.932
	c36.21,17.189,75.393,29.252,115.68,37.193c5.243,1.034,10.505,1.997,15.78,2.894c38.326,6.51,77.418,9.456,115.693,9.691
	c19.614-17.726,32.564-44.089,33.899-72.066c1.174-24.54-11.706-43.989-25.343-64.579c-13.803-20.846-28.078-42.401-26.642-69.659
	c2.757-52.358,50.308-101.971,93.654-122.068c2.781-1.296,6.106-0.084,7.405,2.715c1.296,2.794,0.082,6.109-2.715,7.406
	c-40.952,18.989-84.769,66.273-87.204,112.535c-1.239,23.581,11.412,42.684,24.804,62.91c14.026,21.184,28.532,43.087,27.187,71.273
	c-1.28,26.815-12.256,52.321-29.358,71.479c8.612-0.111,17.17-0.354,25.656-0.721c33.899-1.468,67.665-4.953,101.201-10.064
	c1.935-2.74,3.798-5.534,5.578-8.382c1.637-2.615,5.082-3.41,7.686-1.775c2.615,1.634,3.408,5.074,1.776,7.686
	c-0.016,0.026-0.033,0.051-0.049,0.077c42.602-7.116,84.803-16.777,126.396-28.197c114.216-31.358,225.856-75.758,343.636-88.263
	c41.91-4.45,84.356-4.827,126.638-5.92c4.83-0.125,9.658-0.259,14.483-0.409c32.038-1.001,63.936-2.73,95.39-7.275
	c3.692-0.534,7.377-1.106,11.057-1.721c13.81-2.307,27.527-5.207,41.125-8.882c18.193-4.918,35.92-11.398,52.991-19.279
	c-14.647-21.359-36.675-36.56-61.103-41.66c-10.666-2.225-21.435-2.727-32.839-3.258c-12.907-0.602-26.255-1.225-39.345-4.586
	c-27.233-7-52.197-23.107-70.29-45.353c-21.636-26.607-31.801-60.739-40.77-90.851c-0.88-2.952,0.8-6.06,3.753-6.94
	c2.947-0.882,6.058,0.798,6.94,3.753c8.669,29.115,18.499,62.117,38.732,87c16.598,20.408,39.473,35.175,64.413,41.584
	c11.976,3.078,24.175,3.647,37.087,4.249c11.335,0.528,23.058,1.075,34.595,3.481c27.775,5.798,52.731,23.244,68.981,47.689
	c35.283-17.714,67.511-41.467,94.941-69.78l-0.156-10.785c-0.043-3.081,2.419-5.614,5.499-5.657
	c2.792,0.049,5.125,1.989,5.578,4.638c5.1-5.771,10.008-11.708,14.71-17.802c2.704-3.505,5.342-7.063,7.909-10.669
	C1795.494,1007.191,1809.41,981.121,1819.508,953.498z"/>
<path style="fill:#15162B;" d="M308.025,777.567l1.021,0.093c2.636,0,4.981-1.876,5.48-4.562
	c5.869-31.67,19.277-74.054,29.965-103.586c11.73,7.945,39.786,27.173,72.897,51.481c2.484,1.825,5.976,1.289,7.798-1.195
	c1.822-2.484,1.288-5.976-1.196-7.798c-43.815-32.166-78.848-55.498-79.196-55.73c-1.417-0.945-3.182-1.19-4.81-0.661
	c-1.62,0.525-2.911,1.762-3.505,3.358c-11.15,29.94-26.465,77.263-32.922,112.1C302.994,774.094,304.996,777.006,308.025,777.567z"
	/>
<path style="fill:#15162B;" d="M594.807,682.892c2.252,2.097,5.788,1.966,7.882-0.289c27.958-30.093,51.906-54.249,61.937-64.252
	c16.042,27.004,37.169,66.123,48.878,96.121c0.861,2.203,2.966,3.552,5.199,3.552c0.673,0,1.359-0.125,2.026-0.384
	c2.868-1.122,4.287-4.355,3.168-7.226c-12.883-32.996-36.806-76.606-53.379-103.924c-0.883-1.457-2.383-2.43-4.075-2.642
	c-1.675-0.224-3.383,0.356-4.6,1.552c-0.299,0.294-30.33,29.788-67.324,69.609C592.422,677.268,592.549,680.798,594.807,682.892z"/>
<path style="fill:#15162B;" d="M467.996,791.534c-7.668,0.52-13.404,8.002-12.813,16.71c0.591,8.708,7.285,15.345,14.954,14.824
	c7.667-0.52,13.404-8.002,12.813-16.709C482.359,797.651,475.663,791.014,467.996,791.534z"/>
<path style="fill:#15162B;" d="M574.192,784.326c-7.668,0.521-13.404,8.001-12.813,16.71c0.591,8.708,7.286,15.345,14.954,14.825
	c7.667-0.521,13.403-8.002,12.812-16.71C588.554,790.442,581.859,783.805,574.192,784.326z"/>
<path style="fill:#15162B;" d="M579.051,882.12c-3.034-0.215-5.717,2.163-5.896,5.238c-0.161,2.68-2.452,5.602-6.284,8.021
	c-7.566,4.766-18.262,6.109-25.433,3.19c-5.85-2.379-8.374-8.298-9.038-14.385c-0.031-0.868-0.09-1.734-0.175-2.594
	c-0.11-4.026,0.507-7.915,1.424-10.682c0.103-0.312,0.177-0.626,0.223-0.941c0.771-0.736,1.533-1.478,2.284-2.232
	c3.056-3.068,6.014-6.388,7.543-10.393c1.529-4.005,1.381-8.855-1.39-12.151l-1.234-1.229c-2.247-1.883-5.274-2.842-8.236-3.351
	c-5.247-0.903-10.702-0.651-15.846,0.728c-3.504,0.94-6.975,2.477-9.361,5.154c-7.178,8.056,1.6,17.776,10.001,23.523
	c0.06,0.658,0.238,1.316,0.546,1.944c1.283,2.616,2.419,6.385,2.854,10.389c0.032,0.864,0.09,1.731,0.177,2.596
	c0.163,6.121-1.538,12.326-7.011,15.473c-6.713,3.859-17.496,3.982-25.629,0.278c-4.129-1.876-6.795-4.467-7.315-7.103
	c-0.596-3.018-3.527-5.009-6.553-4.39c-3.021,0.596-4.987,3.53-4.39,6.553c1.242,6.297,6.087,11.66,13.64,15.094
	c5.384,2.451,11.534,3.666,17.551,3.666c6.651,0,13.141-1.485,18.259-4.429c3.578-2.057,6.277-4.744,8.246-7.811
	c2.366,2.774,5.403,5.072,9.226,6.626c3.846,1.563,8.264,2.323,12.839,2.323c7.822-0.003,16.102-2.217,22.747-6.408
	c7.019-4.426,11.091-10.391,11.469-16.799C584.471,884.942,582.126,882.3,579.051,882.12z"/>
<path style="fill:#15162B;" d="M749.962,787.51L617.77,838.758c-2.873,1.114-4.298,4.347-3.187,7.218
	c0.858,2.211,2.969,3.565,5.202,3.565c0.673,0,1.354-0.123,2.016-0.379l132.192-51.247c2.873-1.114,4.298-4.346,3.187-7.217
	C756.06,787.818,752.816,786.394,749.962,787.51z"/>
<path style="fill:#15162B;" d="M764.484,835.318l-145.467,20.19c-3.05,0.425-5.181,3.241-4.758,6.295
	c0.389,2.789,2.778,4.81,5.518,4.81l0.776-0.052l145.467-20.19c3.05-0.425,5.181-3.241,4.758-6.295
	C770.353,837.026,767.543,834.888,764.484,835.318z"/>
<path style="fill:#15162B;" d="M764.547,890.359l-143.764-16.968c-3.037-0.368-5.832,1.822-6.194,4.886
	c-0.359,3.058,1.827,5.831,4.886,6.193l143.764,16.968l0.662,0.038c2.786,0,5.196-2.087,5.532-4.925
	C769.792,893.494,767.605,890.721,764.547,890.359z"/>
<path style="fill:#15162B;" d="M293.93,835.13c-0.638,3.013,1.291,5.973,4.306,6.61l138.715,29.311l1.157,0.119
	c2.579,0,4.897-1.8,5.453-4.426c0.637-3.012-1.291-5.973-4.306-6.61L300.54,830.824C297.522,830.178,294.568,832.115,293.93,835.13z
	"/>
<path style="fill:#15162B;" d="M442.965,880.162c-0.071-3.078-2.585-5.627-5.709-5.442l-146.821,3.478
	c-3.077,0.071-5.515,2.628-5.442,5.706c0.071,3.037,2.552,5.447,5.573,5.447l0.136-0.003l146.82-3.478
	C440.6,885.799,443.038,883.242,442.965,880.162z"/>
<path style="fill:#15162B;" d="M443.689,894.363c-0.852-2.964-3.957-4.685-6.899-3.827l-139.161,39.879
	c-2.961,0.85-4.674,3.939-3.826,6.899c0.702,2.448,2.933,4.045,5.36,4.045c0.509,0,1.027-0.071,1.539-0.218l139.161-39.879
	C442.823,900.411,444.536,897.323,443.689,894.363z"/>
<path style="fill:#15162B;" d="M1750.284,1054.929c-3.081,0.043-5.543,2.577-5.499,5.657l0.156,10.785l1.285,89.246
	c-0.485,45.143-21.824,85.697-54.366,103.319c-0.267,0.145-0.538,0.283-0.81,0.421c-1.177-7.574,2.018-15.915,8.259-20.396
	c2.503-1.797,3.075-5.283,1.28-7.784c-1.798-2.503-5.287-3.08-7.784-1.28c-10.207,7.328-15.07,20.769-12.459,32.909
	c-2.86,0.491-5.754,0.686-8.531,0.576c-0.067-0.374-0.172-0.746-0.318-1.112c-3.666-9.103-0.273-20.686,7.724-26.373
	c2.511-1.784,3.1-5.267,1.313-7.778c-1.784-2.508-5.262-3.102-7.779-1.313c-10.407,7.4-15.569,20.862-13.408,33.285
	c-3.407-2.096-5.18-4.974-5.409-8.781c-0.264-4.382,1.977-8.982,4.35-13.852l1.261-2.617c12.555-26.615,11.711-58.029-2.315-86.188
	c-2.163-4.34-4.581-8.515-7.232-12.502c-16.25-24.445-41.206-41.891-68.981-47.689c-11.537-2.405-23.26-2.952-34.595-3.481
	c-12.912-0.602-25.111-1.171-37.087-4.249c-24.94-6.409-47.815-21.176-64.413-41.584c-20.233-24.883-30.063-57.885-38.732-87
	c-0.882-2.955-3.993-4.635-6.94-3.753c-2.952,0.88-4.632,3.987-3.753,6.94c8.969,30.112,19.133,64.244,40.77,90.851
	c18.092,22.246,43.057,38.354,70.29,45.353c13.09,3.361,26.438,3.984,39.345,4.586c11.404,0.531,22.173,1.032,32.839,3.258
	c24.428,5.1,46.456,20.301,61.103,41.66c2.735,3.988,5.213,8.191,7.4,12.583c12.679,25.452,13.466,52.604,2.214,76.454l-1.201,2.492
	c-2.764,5.673-5.896,12.101-5.455,19.408c0.469,7.806,4.641,14.28,11.75,18.229c5.27,2.928,11.926,4.374,18.872,4.374
	c8.102,0,16.598-1.967,23.747-5.837c36.047-19.52,59.682-63.879,60.21-113.149l-1.441-100.171c-0.004-0.294-0.031-0.581-0.079-0.861
	C1755.409,1056.917,1753.076,1054.978,1750.284,1054.929z"/>
<path style="fill:#15162B;" d="M826.402,1298.227c-2.604-1.634-6.049-0.839-7.686,1.775c-1.78,2.848-3.643,5.641-5.578,8.382
	c-42.681,60.429-121.491,94.264-161.988,82.167c-0.82-0.245-1.637-0.525-2.451-0.836c6.91-4.927,16.535-6.258,24.284-2.805
	c2.824,1.253,6.109-0.019,7.365-2.832c1.25-2.816-0.019-6.112-2.832-7.362c-13.037-5.796-29.058-2.657-39.205,7.156
	c-2.947-2.237-5.586-4.809-7.708-7.526c0.569-0.344,1.088-0.794,1.521-1.35c6.577-8.457,19.364-11.622,29.14-7.202
	c2.794,1.275,6.109,0.03,7.381-2.778c1.272-2.805,0.03-6.109-2.778-7.381c-13.489-6.114-30.292-2.614-40.424,8.045
	c-0.645-3.809,0.289-7.076,2.835-9.941c3.162-3.552,8.342-5.333,13.828-7.214l2.914-1.014c15.769-5.636,29.874-15.581,41.262-28.341
	c17.102-19.157,28.078-44.663,29.358-71.479c1.345-28.186-13.16-50.09-27.187-71.273c-13.392-20.225-26.043-39.329-24.804-62.91
	c2.435-46.263,46.252-93.547,87.204-112.535c2.797-1.297,4.012-4.611,2.715-7.406c-1.299-2.8-4.625-4.012-7.405-2.715
	c-43.346,20.097-90.897,69.71-93.654,122.068c-1.435,27.258,12.839,48.812,26.642,69.659c13.637,20.59,26.517,40.039,25.343,64.579
	c-1.335,27.977-14.286,54.34-33.899,72.066c-8.627,7.798-18.542,13.927-29.329,17.782l-2.783,0.967
	c-6.297,2.162-13.435,4.611-18.542,10.353c-5.436,6.117-7.15,13.997-4.824,22.189c3.701,13.027,17.818,26.236,32.836,30.725
	c6.133,1.836,13.054,2.724,20.557,2.724c48.778,0,121.875-37.652,159.618-97.972c0.016-0.026,0.033-0.051,0.049-0.077
	C829.81,1303.301,829.017,1299.861,826.402,1298.227z"/>
<path style="fill:#15162B;" d="M1798.475,810.557l1.321-0.158c2.993-0.725,4.832-3.742,4.105-6.735
	c-29.54-121.788-118.471-216.021-237.886-252.076c-2.936-0.882-6.06,0.779-6.953,3.729c-0.89,2.95,0.779,6.063,3.729,6.953
	c115.589,34.897,201.671,126.121,230.271,244.025C1793.678,808.847,1795.961,810.557,1798.475,810.557z"/>
<path style="fill:#15162B;" d="M563.293,1031.324c1.542-2.667,0.632-6.079-2.034-7.623c-2.669-1.547-6.079-0.632-7.623,2.034
	c-5.976,10.325-14.171,11.472-18.482,11.279c-6.444-0.327-13.212-4.935-15.745-10.72c-1.236-2.822-4.524-4.113-7.346-2.873
	c-2.824,1.237-4.11,4.524-2.873,7.346c4.244,9.696,14.688,16.845,25.397,17.387c0.52,0.027,1.038,0.041,1.55,0.041
	C547.218,1048.193,557.05,1042.111,563.293,1031.324z"/>
</svg>
